<svg id="SvgjsSvg1207" width="708.359375" height="722.765625" xmlns="http://www.w3.org/2000/svg" version="1.1" xmlns:xlink="http://www.w3.org/1999/xlink" xmlns:svgjs="http://svgjs.com/svgjs"><defs id="SvgjsDefs1208"><pattern id="SvgjsPattern1211" x="0" y="0" width="312.47508425567787" height="317.898167552" patternUnits="userSpaceOnUse"><image id="SvgjsImage1212" xlink:href="https://www.processon.com/assets/images/designer/network_aws/groups/Availability_Zone.svg" width="312.47508425567787" height="317.898167552" preserveAspectRatio="none" crossOrigin="anonymous" x="0" y="0"></image></pattern><pattern id="SvgjsPattern1217" x="0" y="0" width="100.67215568862275" height="72" patternUnits="userSpaceOnUse"><image id="SvgjsImage1218" xlink:href="https://iconsapi.com/5ee2648de4b0b788a932f64b.svg" width="100.67215568862275" height="72" preserveAspectRatio="none" crossOrigin="anonymous" x="0" y="0"></image></pattern><pattern id="SvgjsPattern1221" x="0" y="0" width="100.67215568862275" height="72" patternUnits="userSpaceOnUse"><image id="SvgjsImage1222" xlink:href="https://iconsapi.com/5ee2648de4b0b788a932f64b.svg" width="100.67215568862275" height="72" preserveAspectRatio="none" crossOrigin="anonymous" x="0" y="0"></image></pattern><pattern id="SvgjsPattern1225" x="0" y="0" width="100.67215568862275" height="72" patternUnits="userSpaceOnUse"><image id="SvgjsImage1226" xlink:href="https://iconsapi.com/5ee2648de4b0b788a932f64b.svg" width="100.67215568862275" height="72" preserveAspectRatio="none" crossOrigin="anonymous" x="0" y="0"></image></pattern><pattern id="SvgjsPattern1229" x="0" y="0" width="309.7088263888036" height="212.4642177223949" patternUnits="userSpaceOnUse"><image id="SvgjsImage1230" xlink:href="https://www.processon.com/assets/images/designer/network_aws/groups/Availability_Zone.svg" width="309.7088263888036" height="212.4642177223949" preserveAspectRatio="none" crossOrigin="anonymous" x="0" y="0"></image></pattern><pattern id="SvgjsPattern1245" x="0" y="0" width="99.66392215568862" height="80.96884735202502" patternUnits="userSpaceOnUse"><image id="SvgjsImage1246" xlink:href="https://www.processon.com/assets/images/designer/network/monitor.svg" width="99.66392215568862" height="80.96884735202502" preserveAspectRatio="none" crossOrigin="anonymous" x="0" y="0"></image></pattern><marker id="SvgjsMarker1263" markerWidth="16" markerHeight="12" refX="16" refY="6" viewBox="0 0 16 12" orient="auto" markerUnits="userSpaceOnUse" stroke-dasharray="0,0"><path id="SvgjsPath1264" d="M0,2 L14,6 L0,11 L0,2" fill="#323232" stroke="#323232" stroke-width="2"></path></marker><marker id="SvgjsMarker1271" markerWidth="16" markerHeight="12" refX="16" refY="6" viewBox="0 0 16 12" orient="auto" markerUnits="userSpaceOnUse" stroke-dasharray="0,0"><path id="SvgjsPath1272" d="M0,2 L14,6 L0,11 L0,2" fill="#323232" stroke="#323232" stroke-width="2"></path></marker><marker id="SvgjsMarker1311" markerWidth="16" markerHeight="12" refX="16" refY="6" viewBox="0 0 16 12" orient="auto" markerUnits="userSpaceOnUse" stroke-dasharray="0,0"><path id="SvgjsPath1312" d="M0,2 L14,6 L0,11 L0,2" fill="#323232" stroke="#323232" stroke-width="2"></path></marker><marker id="SvgjsMarker1354" markerWidth="16" markerHeight="12" refX="16" refY="6" viewBox="0 0 16 12" orient="auto" markerUnits="userSpaceOnUse" stroke-dasharray="0,0"><path id="SvgjsPath1355" d="M0,2 L14,6 L0,11 L0,2" fill="#323232" stroke="#323232" stroke-width="2"></path></marker><marker id="SvgjsMarker1358" markerWidth="16" markerHeight="12" refX="16" refY="6" viewBox="0 0 16 12" orient="auto" markerUnits="userSpaceOnUse" stroke-dasharray="0,0"><path id="SvgjsPath1359" d="M0,2 L14,6 L0,11 L0,2" fill="#323232" stroke="#323232" stroke-width="2"></path></marker><marker id="SvgjsMarker1362" markerWidth="16" markerHeight="12" refX="16" refY="6" viewBox="0 0 16 12" orient="auto" markerUnits="userSpaceOnUse" stroke-dasharray="0,0"><path id="SvgjsPath1363" d="M0,2 L14,6 L0,11 L0,2" fill="#323232" stroke="#323232" stroke-width="2"></path></marker><marker id="SvgjsMarker1366" markerWidth="16" markerHeight="12" refX="16" refY="6" viewBox="0 0 16 12" orient="auto" markerUnits="userSpaceOnUse" stroke-dasharray="0,0"><path id="SvgjsPath1367" d="M0,2 L14,6 L0,11 L0,2" fill="#323232" stroke="#323232" stroke-width="2"></path></marker><marker id="SvgjsMarker1370" markerWidth="16" markerHeight="12" refX="16" refY="6" viewBox="0 0 16 12" orient="auto" markerUnits="userSpaceOnUse" stroke-dasharray="0,0"><path id="SvgjsPath1371" d="M0,2 L14,6 L0,11 L0,2" fill="#323232" stroke="#323232" stroke-width="2"></path></marker><pattern id="SvgjsPattern1374" x="0" y="0" width="52.21536351165986" height="54.391945672238194" patternUnits="userSpaceOnUse"><image id="SvgjsImage1375" xlink:href="https://iconsapi.com/5ee276bde4b0b788a93497ab.svg" width="52.21536351165986" height="54.391945672238194" preserveAspectRatio="none" crossOrigin="anonymous" x="0" y="0"></image></pattern><marker id="SvgjsMarker1384" markerWidth="16" markerHeight="12" refX="16" refY="6" viewBox="0 0 16 12" orient="auto" markerUnits="userSpaceOnUse" stroke-dasharray="0,0"><path id="SvgjsPath1385" d="M0,2 L14,6 L0,11 L0,2" fill="#323232" stroke="#323232" stroke-width="2"></path></marker><marker id="SvgjsMarker1388" markerWidth="16" markerHeight="12" refX="16" refY="6" viewBox="0 0 16 12" orient="auto" markerUnits="userSpaceOnUse" stroke-dasharray="0,0"><path id="SvgjsPath1389" d="M0,2 L14,6 L0,11 L0,2" fill="#323232" stroke="#323232" stroke-width="2"></path></marker><pattern id="SvgjsPattern1392" x="0" y="0" width="92.5904734849164" height="35.42484707466227" patternUnits="userSpaceOnUse"><image id="SvgjsImage1393" xlink:href="https://cdn.processon.com/5f4de1b05653bb0c71e2fc30?e=1598943168&amp;amp;token=trhI0BY8QfVrIGn9nENop6JAc6l5nZuxhjQ62UfM:25-NcwJ9CPFDOuedISxU0O0VOP4=" width="92.5904734849164" height="35.42484707466227" preserveAspectRatio="none" crossOrigin="anonymous" x="0" y="0"></image></pattern><pattern id="SvgjsPattern1396" x="0" y="0" width="82.98688069457972" height="42.01851851851819" patternUnits="userSpaceOnUse"><image id="SvgjsImage1397" xlink:href="https://cdn.processon.com/5f4de242e0b34d1abc7373af?e=1598943314&amp;amp;token=trhI0BY8QfVrIGn9nENop6JAc6l5nZuxhjQ62UfM:S3AzEqfScqn0yLiw4-m2ohBcB0g=" width="82.98688069457972" height="42.01851851851819" preserveAspectRatio="none" crossOrigin="anonymous" x="0" y="0"></image></pattern><pattern id="SvgjsPattern1400" x="0" y="0" width="68.74999999999966" height="65.37611329957122" patternUnits="userSpaceOnUse"><image id="SvgjsImage1401" xlink:href="https://cdn.processon.com/5f4de3dae401fd14b2292774?e=1598943722&amp;amp;token=trhI0BY8QfVrIGn9nENop6JAc6l5nZuxhjQ62UfM:wSu3N1AYRw5EcBu1Vcavx9Q0uT4=" width="68.74999999999966" height="65.37611329957122" preserveAspectRatio="none" crossOrigin="anonymous" x="0" y="0"></image></pattern></defs><g id="SvgjsG1209" transform="translate(208.4393721242672,27.41433244800004)"><path id="SvgjsPath1210" d="M 0 0L 312.47508425567787 0L 312.47508425567787 317.898167552L 0 317.898167552Z" stroke="none" fill="url(#SvgjsPattern1211)"></path><g id="SvgjsG1213"><text id="SvgjsText1214" font-family="微软雅黑" text-anchor="middle" font-size="13px" width="313px" fill="#323232" font-weight="400" align="middle" anchor="middle" family="微软雅黑" size="13px" weight="400" font-style="" opacity="1" y="148.99908377600002" transform="rotate(0)"></text></g></g><g id="SvgjsG1215" transform="translate(25,250.50720404984412)"><path id="SvgjsPath1216" d="M 0 0L 100.67215568862275 0L 100.67215568862275 72L 0 72Z" stroke="none" fill="url(#SvgjsPattern1217)"></path></g><g id="SvgjsG1219" transform="translate(25,150.60611370716492)"><path id="SvgjsPath1220" d="M 0 0L 100.67215568862275 0L 100.67215568862275 72L 0 72Z" stroke="none" fill="url(#SvgjsPattern1221)"></path></g><g id="SvgjsG1223" transform="translate(25,47.64583333333337)"><path id="SvgjsPath1224" d="M 0 0L 100.67215568862275 0L 100.67215568862275 72L 0 72Z" stroke="none" fill="url(#SvgjsPattern1225)"></path></g><g id="SvgjsG1227" transform="translate(209.64496273729378,478.64583333333314)"><path id="SvgjsPath1228" d="M 0 0L 309.7088263888036 0L 309.7088263888036 212.4642177223949L 0 212.4642177223949Z" stroke="none" fill="url(#SvgjsPattern1229)"></path><g id="SvgjsG1231"><text id="SvgjsText1232" font-family="微软雅黑" text-anchor="middle" font-size="13px" width="310px" fill="#323232" font-weight="400" align="middle" anchor="middle" family="微软雅黑" size="13px" weight="400" font-style="" opacity="1" y="96.28210886119744" transform="rotate(0)"></text></g></g><g id="SvgjsG1233" transform="translate(561.3733366600134,493.4947429906539)"><path id="SvgjsPath1234" d="M 18.31066616766468 0L 110.40963322576037 0C 125.25150993679598 0 125.25150993679598 69.96884735202502 110.40963322576037 69.96884735202502L 18.31066616766468 69.96884735202502C -6.103555389221561 69.96884735202502 -6.103555389221561 0 18.31066616766468 0ZM 110.40963322576037 0C 95.83279002742182 0 95.83279002742182 69.96884735202502 110.40963322576037 69.96884735202502C 95.83279002742182 69.96884735202502 95.83279002742182 0 110.40963322576037 0" stroke="rgba(50,50,50,1)" stroke-width="2" fill-opacity="1" fill="#ffffff"></path><g id="SvgjsG1235"><text id="SvgjsText1236" font-family="微软雅黑" text-anchor="middle" font-size="13px" width="98px" fill="#323232" font-weight="400" align="middle" anchor="middle" family="微软雅黑" size="13px" weight="400" font-style="" opacity="1" y="25.034423676012512" transform="rotate(0)"></text></g></g><g id="SvgjsG1237" transform="translate(38.06605538922156,68.64583333333337)"><path id="SvgjsPath1238" d="M 0 0L 74.54004491017963 0L 74.54004491017963 30L 0 30Z" stroke="none" fill="none"></path><g id="SvgjsG1239"><text id="SvgjsText1240" font-family="微软雅黑" text-anchor="middle" font-size="16px" width="75px" fill="#323232" font-weight="700" align="middle" anchor="middle" family="微软雅黑" size="16px" weight="700" font-style="" opacity="1" y="2.6" transform="rotate(0)"><tspan id="SvgjsTspan1241" dy="20" x="37.5"><tspan id="SvgjsTspan1242" style="text-decoration:;">fee sdk</tspan></tspan></text></g></g><g id="SvgjsG1243" transform="translate(25.504116766467064,575.8436526479743)"><path id="SvgjsPath1244" d="M 0 0L 99.66392215568862 0L 99.66392215568862 80.96884735202502L 0 80.96884735202502Z" stroke="none" fill="url(#SvgjsPattern1245)"></path><g id="SvgjsG1247"><text id="SvgjsText1248" font-family="微软雅黑" text-anchor="middle" font-size="16px" width="140px" fill="#323232" font-weight="700" align="middle" anchor="middle" family="微软雅黑" size="16px" weight="700" font-style="" opacity="1" y="83.56884735202502" transform="rotate(0)"><tspan id="SvgjsTspan1249" dy="20" x="50"><tspan id="SvgjsTspan1250" style="text-decoration:;">fee client</tspan></tspan></text></g></g><g id="SvgjsG1251" transform="translate(315.5,75.01031931464178)"><path id="SvgjsPath1252" d="M 0 0L 100 0L 100 70L 0 70Z" stroke="rgba(50,50,50,1)" stroke-width="2" fill-opacity="1" fill="#ffffff"></path><g id="SvgjsG1253"><text id="SvgjsText1254" font-family="微软雅黑" text-anchor="middle" font-size="13px" width="80px" fill="#ffffff" font-weight="400" align="middle" anchor="middle" family="微软雅黑" size="13px" weight="400" font-style="" opacity="1" y="25.05" transform="rotate(0)"></text></g></g><g id="SvgjsG1255" transform="translate(230,186.86078660436135)"><path id="SvgjsPath1256" d="M 0 0L 271 0L 271 24.82866043613717L 0 24.82866043613717Z" stroke="rgba(50,50,50,1)" stroke-width="2" fill-opacity="1" fill="#ffffff"></path><g id="SvgjsG1257"><text id="SvgjsText1258" font-family="微软雅黑" text-anchor="middle" font-size="13px" width="251px" fill="#323232" font-weight="400" align="middle" anchor="middle" family="微软雅黑" size="13px" weight="400" font-style="" opacity="1" y="2.464330218068585" transform="rotate(0)"><tspan id="SvgjsTspan1259" dy="16" x="135.5"><tspan id="SvgjsTspan1260" style="text-decoration:;">$year$month-$day-$hour-$minute.log</tspan></tspan></text></g></g><g id="SvgjsG1261"><path id="SvgjsPath1262" d="M365.5 145.01031931464172L365.5 165.93555295950154L365.5 165.93555295950154L365.5 186.86078660436135" stroke="#323232" stroke-width="2" fill="none" marker-end="url(#SvgjsMarker1263)"></path></g><g id="SvgjsG1265" transform="translate(315.5,256.9791666666667)"><path id="SvgjsPath1266" d="M 0 0L 100 0L 100 70L 0 70Z" stroke="rgba(50,50,50,1)" stroke-width="2" fill-opacity="1" fill="#ffffff"></path><g id="SvgjsG1267"><text id="SvgjsText1268" font-family="微软雅黑" text-anchor="middle" font-size="13px" width="80px" fill="#323232" font-weight="400" align="middle" anchor="middle" family="微软雅黑" size="13px" weight="400" font-style="" opacity="1" y="25.05" transform="rotate(0)"></text></g></g><g id="SvgjsG1269"><path id="SvgjsPath1270" d="M365.5 256.9791666666667L365.5 234.33430685358258L365.5 234.33430685358258L365.5 211.68944704049852" stroke="#323232" stroke-width="2" fill="none" marker-end="url(#SvgjsMarker1271)"></path></g><g id="SvgjsG1273" transform="translate(359.5,140.76421339563865)"><path id="SvgjsPath1274" d="M 0 0L 59.5 0L 59.5 34.77050882658358L 0 34.77050882658358Z" stroke="none" fill="none"></path><g id="SvgjsG1275"><text id="SvgjsText1276" font-family="微软雅黑" text-anchor="middle" font-size="13px" width="60px" fill="#323232" font-weight="400" align="middle" anchor="middle" family="微软雅黑" size="13px" weight="400" font-style="" opacity="1" y="7.43525441329179" transform="rotate(0)"><tspan id="SvgjsTspan1277" dy="16" x="30"><tspan id="SvgjsTspan1278" style="text-decoration:;">打log</tspan></tspan></text></g></g><g id="SvgjsG1279" transform="translate(363,230.73306074766356)"><path id="SvgjsPath1280" d="M 0 0L 45 0L 45 27.579439252336442L 0 27.579439252336442Z" stroke="none" fill="none"></path><g id="SvgjsG1281"><text id="SvgjsText1282" font-family="微软雅黑" text-anchor="middle" font-size="13px" width="45px" fill="#323232" font-weight="400" align="middle" anchor="middle" family="微软雅黑" size="13px" weight="400" font-style="" opacity="1" y="3.839719626168221" transform="rotate(0)"><tspan id="SvgjsTspan1283" dy="16" x="22.5"><tspan id="SvgjsTspan1284" style="text-decoration:;">监听</tspan></tspan></text></g></g><g id="SvgjsG1285" transform="translate(359.5,338.3405373831775)"><path id="SvgjsPath1286" d="M 0 0L 74.5 0L 74.5 32.426791277258644L 0 32.426791277258644Z" stroke="none" fill="none"></path><g id="SvgjsG1287"><text id="SvgjsText1288" font-family="微软雅黑" text-anchor="middle" font-size="13px" width="75px" fill="#323232" font-weight="400" align="middle" anchor="middle" family="微软雅黑" size="13px" weight="400" font-style="" opacity="1" y="6.263395638629322" transform="rotate(0)"><tspan id="SvgjsTspan1289" dy="16" x="37.5"><tspan id="SvgjsTspan1290" style="text-decoration:;">produce</tspan></tspan></text></g></g><g id="SvgjsG1291" transform="translate(364,447.64583333333314)"><path id="SvgjsPath1292" d="M 0 0L 70 0L 70 31L 0 31Z" stroke="none" fill="none"></path><g id="SvgjsG1293"><text id="SvgjsText1294" font-family="微软雅黑" text-anchor="middle" font-size="13px" width="70px" fill="#323232" font-weight="400" align="middle" anchor="middle" family="微软雅黑" size="13px" weight="400" font-style="" opacity="1" y="5.55" transform="rotate(0)"><tspan id="SvgjsTspan1295" dy="16" x="35"><tspan id="SvgjsTspan1296" style="text-decoration:;">consume</tspan></tspan></text></g></g><g id="SvgjsG1297" transform="translate(314.6661466097463,581.3280763239869)"><path id="SvgjsPath1298" d="M 0 0L 100 0L 100 70L 0 70Z" stroke="rgba(50,50,50,1)" stroke-width="2" fill-opacity="1" fill="#ffffff"></path><g id="SvgjsG1299"><text id="SvgjsText1300" font-family="微软雅黑" text-anchor="middle" font-size="13px" width="80px" fill="#323232" font-weight="400" align="middle" anchor="middle" family="微软雅黑" size="13px" weight="400" font-style="" opacity="1" y="25.05" transform="rotate(0)"><tspan id="SvgjsTspan1301" dy="16" x="50"><tspan id="SvgjsTspan1302" style="text-decoration:;">api server</tspan></tspan></text></g></g><g id="SvgjsG1303" transform="translate(315.5,493.4791666666664)"><path id="SvgjsPath1304" d="M 0 0L 100 0L 100 70L 0 70Z" stroke="rgba(50,50,50,1)" stroke-width="2" fill-opacity="1" fill="#ffffff"></path><g id="SvgjsG1305"><text id="SvgjsText1306" font-family="微软雅黑" text-anchor="middle" font-size="13px" width="80px" fill="#323232" font-weight="400" align="middle" anchor="middle" family="微软雅黑" size="13px" weight="400" font-style="" opacity="1" y="25.05" transform="rotate(0)"><tspan id="SvgjsTspan1307" dy="16" x="50"><tspan id="SvgjsTspan1308" style="text-decoration:;">task server</tspan></tspan></text></g></g><g id="SvgjsG1309"><path id="SvgjsPath1310" d="M125.16803892215569 616.3280763239868L219.917092765951 616.3280763239868L219.917092765951 616.3280763239869L314.6661466097463 616.3280763239869" stroke="#323232" stroke-width="2" fill="none" marker-end="url(#SvgjsMarker1311)"></path></g><g id="SvgjsG1313" transform="translate(304.50083296539185,657.7767177223949)"><path id="SvgjsPath1314" d="M 0 0L 120 0L 120 40L 0 40Z" stroke="none" fill="none"></path><g id="SvgjsG1315"><text id="SvgjsText1316" font-family="微软雅黑" text-anchor="middle" font-size="16px" width="120px" fill="#323232" font-weight="700" align="middle" anchor="middle" family="微软雅黑" size="16px" weight="700" font-style="" opacity="1" y="7.6" transform="rotate(0)"><tspan id="SvgjsTspan1317" dy="20" x="60"><tspan id="SvgjsTspan1318" style="text-decoration:;">fee server</tspan></tspan></text></g></g><g id="SvgjsG1319" transform="translate(38.06605538922156,170.73306074766356)"><path id="SvgjsPath1320" d="M 0 0L 74.54004491017963 0L 74.54004491017963 30L 0 30Z" stroke="none" fill="none"></path><g id="SvgjsG1321"><text id="SvgjsText1322" font-family="微软雅黑" text-anchor="middle" font-size="16px" width="75px" fill="#323232" font-weight="700" align="middle" anchor="middle" family="微软雅黑" size="16px" weight="700" font-style="" opacity="1" y="2.6" transform="rotate(0)"><tspan id="SvgjsTspan1323" dy="20" x="37.5"><tspan id="SvgjsTspan1324" style="text-decoration:;">fee sdk</tspan></tspan></text></g></g><g id="SvgjsG1325" transform="translate(38.06605538922156,271.5072040498441)"><path id="SvgjsPath1326" d="M 0 0L 74.54004491017963 0L 74.54004491017963 30L 0 30Z" stroke="none" fill="none"></path><g id="SvgjsG1327"><text id="SvgjsText1328" font-family="微软雅黑" text-anchor="middle" font-size="16px" width="75px" fill="#323232" font-weight="700" align="middle" anchor="middle" family="微软雅黑" size="16px" weight="700" font-style="" opacity="1" y="2.6" transform="rotate(0)"><tspan id="SvgjsTspan1329" dy="20" x="37.5"><tspan id="SvgjsTspan1330" style="text-decoration:;">fee sdk</tspan></tspan></text></g></g><g id="SvgjsG1331" transform="translate(48.3780875748503,588.8124999999993)"><path id="SvgjsPath1332" d="M 0 0L 0 37.5L 53.915980538922156 37.5" stroke="rgba(136,136,136,1)" stroke-width="2" fill="none"></path><path id="SvgjsPath1333" d="M 5.391598053892216 15L 10.783196107784432 15L 10.783196107784432 37.5L 5.391598053892216 37.5Z" stroke="rgba(136,136,136,1)" stroke-width="2" fill-opacity="1" fill="#ffffff"></path><path id="SvgjsPath1334" d="M 10.783196107784432 7.5L 16.174794161676648 7.5L 16.174794161676648 37.5L 10.783196107784432 37.5Z" stroke="rgba(136,136,136,1)" stroke-width="2" fill-opacity="1" fill="#d7d7d7"></path><path id="SvgjsPath1335" d="M 21.566392215568865 12L 26.957990269461078 12L 26.957990269461078 37.5L 21.566392215568865 37.5Z" stroke="rgba(136,136,136,1)" stroke-width="2" fill-opacity="1" fill="#ffffff"></path><path id="SvgjsPath1336" d="M 26.957990269461078 4.5L 32.349588323353295 4.5L 32.349588323353295 37.5L 26.957990269461078 37.5Z" stroke="rgba(136,136,136,1)" stroke-width="2" fill-opacity="1" fill="#d7d7d7"></path><path id="SvgjsPath1337" d="M 37.741186377245505 18L 43.13278443113773 18L 43.13278443113773 37.5L 37.741186377245505 37.5Z" stroke="rgba(136,136,136,1)" stroke-width="2" fill-opacity="1" fill="#ffffff"></path><path id="SvgjsPath1338" d="M 43.13278443113773 19.5L 48.52438248502994 19.5L 48.52438248502994 37.5L 43.13278443113773 37.5Z" stroke="rgba(136,136,136,1)" stroke-width="2" fill-opacity="1" fill="#d7d7d7"></path><path id="SvgjsPath1339" d="M 0 0L 53.915980538922156 0L 53.915980538922156 37.5L 0 37.5Z" stroke="none" fill="none"></path><g id="SvgjsG1340"><text id="SvgjsText1341" font-family="微软雅黑" text-anchor="middle" font-size="14px" width="34px" fill="#323232" font-weight="400" align="middle" anchor="middle" family="微软雅黑" size="14px" weight="400" font-style="" opacity="1" y="-23.6" transform="rotate(0)"></text></g></g><g id="SvgjsG1342" transform="translate(305.5628112470994,25.00694444444443)"><path id="SvgjsPath1343" d="M 0 0L 120 0L 120 40L 0 40Z" stroke="none" fill="none"></path><g id="SvgjsG1344"><text id="SvgjsText1345" font-family="微软雅黑" text-anchor="middle" font-size="16px" width="120px" fill="#323232" font-weight="700" align="middle" anchor="middle" family="微软雅黑" size="16px" weight="700" font-style="" opacity="1" y="7.6" transform="rotate(0)"><tspan id="SvgjsTspan1346" dy="20" x="60"><tspan id="SvgjsTspan1347" style="text-decoration:;">dig server</tspan></tspan></text></g></g><g id="SvgjsG1348" transform="translate(285.8870872228062,373.5072111720758)"><path id="SvgjsPath1349" d="M 0 0L 159.35503726270633 0L 159.35503726270633 72.5L 0 72.5Z" stroke="rgba(50,50,50,1)" stroke-width="2" fill-opacity="1" fill="#ffffff"></path><g id="SvgjsG1350"><text id="SvgjsText1351" font-family="微软雅黑" text-anchor="middle" font-size="13px" width="140px" fill="#323232" font-weight="400" align="middle" anchor="middle" family="微软雅黑" size="13px" weight="400" font-style="" opacity="1" y="26.3" transform="rotate(0)"></text></g></g><g id="SvgjsG1352"><path id="SvgjsPath1353" d="M415.5 528.4791666666664L488.4366683300067 528.4791666666664L488.4366683300067 528.4791666666664L561.3733366600134 528.4791666666664" stroke="#323232" stroke-width="2" fill="none" marker-end="url(#SvgjsMarker1354)"></path></g><g id="SvgjsG1356"><path id="SvgjsPath1357" d="M622.408890552229 563.4635903426789L622.408890552229 616.3280763239869L414.6661466097463 616.3280763239869" stroke="#323232" stroke-width="2" fill="none" marker-end="url(#SvgjsMarker1358)"></path></g><g id="SvgjsG1360"><path id="SvgjsPath1361" d="M125.67215568862275 186.60611370716492L167.05576390644498 186.60611370716492L167.05576390644498 186.3634162239997L208.4393721242672 186.3634162239997" stroke="#323232" stroke-width="2" fill="none" marker-end="url(#SvgjsMarker1362)"></path></g><g id="SvgjsG1364"><path id="SvgjsPath1365" d="M125.67215568862275 83.64583333333337L148.7224305731116 83.64583333333337L148.7224305731116 186.3634162239997L208.4393721242672 186.3634162239997" stroke="#323232" stroke-width="2" fill="none" marker-end="url(#SvgjsMarker1366)"></path></g><g id="SvgjsG1368"><path id="SvgjsPath1369" d="M125.67215568862275 286.5072040498441L148.72243057311155 286.5072040498441L148.72243057311155 186.3634162239997L208.4393721242672 186.3634162239997" stroke="#323232" stroke-width="2" fill="none" marker-end="url(#SvgjsMarker1370)"></path></g><g id="SvgjsG1372" transform="translate(316.06061260003503,383.33612915168226)"><path id="SvgjsPath1373" d="M 0 0L 52.21536351165986 0L 52.21536351165986 54.391945672238194L 0 54.391945672238194Z" stroke="none" fill="url(#SvgjsPattern1374)"></path></g><g id="SvgjsG1376" transform="translate(352.1898442990802,395.7501394171537)"><path id="SvgjsPath1377" d="M 0 0L 71.9105928182621 0L 71.9105928182621 30.619871836463517L 0 30.619871836463517Z" stroke="none" fill="none"></path><g id="SvgjsG1378"><text id="SvgjsText1379" font-family="微软雅黑" text-anchor="middle" font-size="14px" width="72px" fill="#323232" font-weight="400" align="middle" anchor="middle" family="微软雅黑" size="14px" weight="400" font-style="" opacity="1" y="4.209935918231759" transform="rotate(0)"><tspan id="SvgjsTspan1380" dy="17" x="36"><tspan id="SvgjsTspan1381" style="text-decoration:;">kafka</tspan></tspan></text></g></g><g id="SvgjsG1382"><path id="SvgjsPath1383" d="M365.5 326.9791666666667L365.5 350.2431889193713L365.56460585415937 350.2431889193713L365.56460585415937 373.5072111720758" stroke="#323232" stroke-width="2" fill="none" marker-end="url(#SvgjsMarker1384)"></path></g><g id="SvgjsG1386"><path id="SvgjsPath1387" d="M365.5 493.4791666666664L365.5 469.74318891937105L365.56460585415937 469.74318891937105L365.56460585415937 446.0072111720758" stroke="#323232" stroke-width="2" fill="none" marker-end="url(#SvgjsMarker1388)"></path></g><g id="SvgjsG1390" transform="translate(318.381677509648,91.84063307975961)"><path id="SvgjsPath1391" d="M 0 0L 92.5904734849164 0L 92.5904734849164 35.42484707466227L 0 35.42484707466227Z" stroke="none" fill="url(#SvgjsPattern1392)"></path></g><g id="SvgjsG1394" transform="translate(323.00593558440573,270.32947530864215)"><path id="SvgjsPath1395" d="M 0 0L 82.98688069457972 0L 82.98688069457972 42.01851851851819L 0 42.01851851851819Z" stroke="none" fill="url(#SvgjsPattern1396)"></path></g><g id="SvgjsG1398" transform="translate(585.903242126858,496.17643390858325)"><path id="SvgjsPath1399" d="M 0 0L 68.74999999999966 0L 68.74999999999966 65.37611329957122L 0 65.37611329957122Z" stroke="none" fill="url(#SvgjsPattern1400)"></path></g><g id="SvgjsG1402" transform="translate(142.19444444444446,160.94178348909674)"><path id="SvgjsPath1403" d="M 0 0L 70.83333333333331 0L 70.83333333333331 27.37071651090332L 0 27.37071651090332Z" stroke="none" fill="none"></path><g id="SvgjsG1404"><text id="SvgjsText1405" font-family="微软雅黑" text-anchor="middle" font-size="13px" width="71px" fill="#323232" font-weight="400" align="middle" anchor="middle" family="微软雅黑" size="13px" weight="400" font-style="" opacity="1" y="3.7353582554516604" transform="rotate(0)"><tspan id="SvgjsTspan1406" dy="16" x="35.5"><tspan id="SvgjsTspan1407" style="text-decoration:;">request</tspan></tspan></text></g></g></svg>